<svg xmlns="http://www.w3.org/2000/svg" viewBox="0 0 16 16"><path d="M12 6c1.094 0 2 .906 2 2v1.031c0 .719-.594 1.313-1.313 1.313a1.25 1.25 0 0 1-.906-.375l-1.438-1.438-1.438 1.438c-.5.5-1.344.5-1.844 0L5.655 8.531 4.217 9.969c-.25.25-.563.375-.906.375a1.321 1.321 0 0 1-1.313-1.313V8c0-1.094.906-2 2-2h3.344V4.656h1.313V6h3.344zm-.937 4.656c.438.438 1 .688 1.625.688.5 0 .938-.156 1.313-.406v3.063a.64.64 0 0 1-.656.656H2.657a.64.64 0 0 1-.656-.656v-3.063c.375.25.813.406 1.313.406.625 0 1.188-.25 1.625-.688l.719-.719.719.719c.875.875 2.375.875 3.25 0l.719-.719zM8 4c-.719 0-1.344-.625-1.344-1.344 0-.25.094-.5.219-.688L8-.001l1.125 1.969c.125.188.219.438.219.688C9.344 3.375 8.75 4 8 4z"/></svg>