<svg xmlns="http://www.w3.org/2000/svg" viewBox="0 0 16 16"><path d="M7.333 5.333H2.666v5.333h4.667V5.333zm-.666 4.334c0-.552-.746-.999-1.667-.999s-1.667.447-1.667.999V6h3.333v3.667zM4 7.668a1 1 0 1 0 2 0 1 1 0 0 0-2 0zm10.619-5.001H1.286C.549 2.667 0 3.205 0 3.94v8c0 .737.549 1.393 1.286 1.393h13.333c.736 0 1.381-.656 1.381-1.393v-8c0-.735-.645-1.273-1.381-1.273zM14.667 12H1.334V4h13.333v8zm-6-6.667h4.667v1.333H8.667zm0 2h4.667V8H8.667zm0 1.334h4.667v.667H8.667zm0 1.333h2v.667h-2zm2.665 0H12v.668h-.668z"/></svg>