<svg xmlns="http://www.w3.org/2000/svg" viewBox="0 0 16 16"><path d="M0 3v8h16V3H0zm6.016 7H2.504c0-.831-.673-1.504-1.504-1.504V6a2 2 0 0 0 2-2h3.016C5.393 4.733 5 5.805 5 7s.393 2.267 1.016 3zm3.299-1.836c-.081.131-.187.238-.318.321s-.281.144-.449.182c-.088.02-.177.035-.266.045V9h-.563v-.295a2.006 2.006 0 0 1-.252-.048c-.178-.046-.333-.114-.464-.21s-.237-.213-.316-.362a1.22 1.22 0 0 1-.123-.492h.617a.708.708 0 0 0 .069.287c.046.089.11.153.192.209.08.056.173.096.277.122V7.137l-.242-.061c-.151-.037-.277-.085-.378-.145s-.18-.127-.239-.201c-.059-.074-.101-.152-.126-.235s-.037-.167-.037-.254c0-.166.037-.31.111-.431s.172-.222.294-.302c.122-.08.26-.139.415-.177.067-.017.135-.03.203-.039v-.295h.563v.297c.077.011.152.026.224.046.163.045.306.111.43.2s.221.199.294.329a.892.892 0 0 1 .108.409h-.621c-.024-.188-.099-.323-.227-.404a.76.76 0 0 0-.207-.09v.949l.239.059c.107.026.183.045.23.058.115.034.216.08.301.138s.157.125.215.201a.83.83 0 0 1 .17.5c0 .184-.04.342-.121.472zM15 8.496c-.813 0-1.5.673-1.5 1.504H9.984C10.607 9.267 11 8.195 11 7s-.393-2.267-1.016-3H13a2 2 0 0 0 2 2v2.496z"/><path d="M4 7a1 1 0 1 1-2 0 1 1 0 0 1 2 0zM14 7a1 1 0 1 1-2 0 1 1 0 0 1 2 0zM8.528 7.35a3.537 3.537 0 0 0-.247-.075v.964a.88.88 0 0 0 .138-.03c.095-.029.173-.067.232-.113s.102-.099.128-.159a.455.455 0 0 0 .039-.182c0-.126-.03-.219-.091-.279s-.128-.102-.2-.127zM7.375 5.967a.337.337 0 0 0-.062.207c0 .117.039.208.116.274a.756.756 0 0 0 .289.146V5.77a.708.708 0 0 0-.188.065.438.438 0 0 0-.155.131zM0 12h16v1H0v-1z"/></svg>