<svg xmlns="http://www.w3.org/2000/svg" viewBox="0 0 16 16"><path d="M11.5 0v1.25h2.184l-2.908 2.874c-.267-.258-.473-.393-.473-.393A3.988 3.988 0 0 0 8 3a3.986 3.986 0 0 0-2.778 1.122l-.542-.535 1.12-1.12-1.016-1.016-1.126 1.126-1.341-1.326h2.184V.001h-4.5v4.5h1.25V2.12l1.44 1.424-1.115 1.115 1.016 1.016 1.121-1.121.693.686a3.997 3.997 0 0 0-.41 1.768 4.017 4.017 0 0 0 3.254 3.937v1.617H5V14h2.25v2h1.5v-2H11v-1.438H8.75v-1.617c1.813-.352 3.257-1.981 3.257-3.938 0-.631-.15-1.242-.409-1.77l3.152-3.118V4.5H16V0h-4.5zM7.998 9.513a2.506 2.506 0 0 1 0-5.012 2.506 2.506 0 0 1 0 5.012z"/></svg>